<?xml version="1.0" encoding="UTF-8" standalone="no"?>
<svg
   xmlns:dc="http://purl.org/dc/elements/1.1/"
   xmlns:cc="http://creativecommons.org/ns#"
   xmlns:rdf="http://www.w3.org/1999/02/22-rdf-syntax-ns#"
   xmlns:svg="http://www.w3.org/2000/svg"
   xmlns="http://www.w3.org/2000/svg"
   xmlns:sodipodi="http://sodipodi.sourceforge.net/DTD/sodipodi-0.dtd"
   xmlns:inkscape="http://www.inkscape.org/namespaces/inkscape"
   width="246.59999"
   height="247.70001"
   viewBox="0 0 246.59999 247.70001"
   version="1.1"
   id="svg3742"
   sodipodi:docname="chef.svg"
   inkscape:version="0.92.1 r">
  <metadata
     id="metadata3748">
    <rdf:RDF>
      <cc:Work
         rdf:about="">
        <dc:format>image/svg+xml</dc:format>
        <dc:type
           rdf:resource="http://purl.org/dc/dcmitype/StillImage" />
        <dc:title></dc:title>
      </cc:Work>
    </rdf:RDF>
  </metadata>
  <defs
     id="defs3746" />
  <sodipodi:namedview
     pagecolor="#ffffff"
     bordercolor="#666666"
     borderopacity="1"
     objecttolerance="10"
     gridtolerance="10"
     guidetolerance="10"
     inkscape:pageopacity="0"
     inkscape:pageshadow="2"
     inkscape:window-width="1561"
     inkscape:window-height="1070"
     id="namedview3744"
     showgrid="false"
     inkscape:zoom="5.6461278"
     inkscape:cx="218.82912"
     inkscape:cy="99.153913"
     inkscape:window-x="1936"
     inkscape:window-y="217"
     inkscape:window-maximized="0"
     inkscape:current-layer="svg3742"
     inkscape:showpageshadow="false"
     fit-margin-top="0"
     fit-margin-left="0"
     fit-margin-right="0"
     fit-margin-bottom="0" />
  <g
     id="g3751"
     transform="translate(-134.8,-63.9)"
     style="fill:#00bff2;fill-opacity:1">
    <path
       sodipodi:nodetypes="cssccsssccc"
       style="fill:#00bff2;fill-opacity:1"
       inkscape:connector-curvature="0"
       id="path3734"
       d="m 258.6,243.5 c -30.7,0 -55.8,-25 -55.8,-55.7 0,-30.7 25,-55.8 55.8,-55.8 25.4,0 46.8,17 53.6,40.3 h 21.6 c -7.2,-34.9 -38.1,-61.2 -75.1,-61.2 -42.3,0 -76.7,34.4 -76.7,76.7 0,42.3 34.4,76.7 76.7,76.7 37,0 67.9,-26.3 75.1,-61.2 h -21.6 c -6.8,23.2 -28.3,40.2 -53.6,40.2" />
  </g>
  <path
     d="m 86.199995,161.50001 c 9.6,9.6 22.899995,15.6 37.599995,15.6 v -22.2 c -8.5,0 -16.3,-3.5 -21.9,-9.1 z m -15.6,-37.6 c 0,7.6 1.6,14.8 4.5,21.4 l 20.3,-8.9 c -1.7,-3.8 -2.6,-8 -2.6,-12.5 C 92.799995,106.80001 106.69999,93 123.69999,93 V 70.8 C 94.399995,70.7 70.599995,94.6 70.599995,123.90001 M 142.99999,74.3 l -8.1,20.7 c 6.6,2.6 12.1,7.30001 15.6,13.40001 h 24.1 C 169.89999,92.8 158.09999,80.2 142.99999,74.3 m -8,78.40001 8.1,20.7 c 15.1,-5.9 26.8,-18.5 31.6,-34.1 h -24.1 c -3.5,6.1 -9,10.8 -15.6,13.4 m -109.599995,0.9 c -0.4,-1.2 -0.7,-2.3 -1,-3.5 0,-0.1 0,-0.1 -0.1,-0.2 -0.3,-1.1 -0.6,-2.2 -0.8,-3.3 -0.1,-0.2 -0.1,-0.5 -0.1,-0.7 -0.2,-0.9 -0.4,-1.9 -0.6,-2.9 -0.1,-0.4 -0.2,-0.9 -0.2,-1.3 -0.1,-0.8 -0.3,-1.5 -0.4,-2.3 -0.1,-0.7 -0.2,-1.3 -0.3,-2 -0.6,-4.5 -0.9,-9 -0.9,-13.7 H 0 c 0,5 0.3,10 0.9,14.9 v 0.3 c 0.2,1.3 0.3,2.7 0.6,4 0.1,0.4 0.1,0.7 0.2,1.1 0.2,1.1 0.4,2.2 0.6,3.2 0.1,0.6 0.2,1.1 0.4,1.7 0.2,0.9 0.4,1.7 0.6,2.6 0.2,0.7 0.4,1.5 0.6,2.2 0.2,0.7 0.3,1.3 0.5,2 0.2,0.9 0.5,1.8 0.7,2.6 0.1,0.4 0.2,0.7 0.3,1.1 1.4,4.8 3.2,9.5 5.2,14 l 19.199995,-8.5 c -1.8,-3.4 -3.2,-7.3 -4.4,-11.3 z"
     id="path3736"
     inkscape:connector-curvature="0"
     style="fill:#00bff2;fill-opacity:1" />
  <path
     d="m 123.79999,226.70001 c -28.299995,0 -53.999995,-11.5 -72.599995,-30.2 l -14.9,14.9 c 22.4,22.4 53.3,36.3 87.499995,36.3 63.1,0 115.2,-47.3 122.8,-108.3 h -21.2 c -7.5,49.3 -50.2,87.3 -101.6,87.3 m 0,-205.60001 c 23,0 44.3,7.6 61.4,20.4 l 12.6,-16.9 c -20.6,-15.4 -46.3,-24.6 -74,-24.6 C 71.299995,0 26.399995,32.7 8.4,78.9 l 19.599995,7.6 c 14.9,-38.2 52.2,-65.4 95.799995,-65.4 m 101.6,87.30001 h 21.2 C 244.29999,90.2 238.09999,73.2 228.79999,58.3 l -17.8,11.1 c 7.2,11.7 12.3,24.9 14.4,39.00001"
     id="path3738"
     inkscape:connector-curvature="0"
     style="fill:#00bff2;fill-opacity:1" />
  <path
     d="m 201.49999,108.40001 h 21.3 c -5.5,-35.70001 -30,-65.10001 -62.7,-77.90001 l -7.6,19.5 c 24.9,9.7 43.7,31.7 49,58.40001 M 123.79999,44.6 V 23.7 c -42.399995,0 -78.799995,26.5 -93.399995,63.9 l 19.5,7.6 c 11.5,-29.6 40.3,-50.6 73.899995,-50.6 m -79.299995,79.30001 h -20.9 c 0,42.1 26.1,78.2 63,93 l 7.8,-19.4 c -29.2,-11.7 -49.9,-40.3 -49.9,-73.6 m 79.299995,79.3 v 20.9 c 50,0 91.6,-36.8 99,-84.7 h -21.3 c -7.2,36.3 -39.3,63.8 -77.7,63.8"
     id="path3740"
     inkscape:connector-curvature="0"
     style="fill:#00bff2;fill-opacity:1" />
  <path
     style="stroke-width:0.35422507;fill:#00bff2;fill-opacity:1"
     d="M 18.32269,82.592775 C 13.181178,80.582853 8.9031084,78.866994 8.8158686,78.779751 8.5565379,78.520423 11.437048,71.996862 13.993722,67.053347 24.070245,47.56965 39.687129,30.612296 58.281848,18.963763 72.128244,10.289784 88.109561,4.3111233 104.36062,1.7255472 c 12.96817,-2.06326196 27.82255,-1.94340783 40.913,0.3301108 17.12627,2.9744526 35.12538,10.394429 48.85954,20.141922 1.54566,1.096993 2.95234,2.09101 3.12596,2.208925 0.32696,0.222053 -11.65119,16.611299 -12.14043,16.611299 -0.15179,0 -1.76686,-1.015018 -3.58906,-2.255595 C 153.32422,19.559581 117.41936,15.640998 85.674143,28.300738 62.385542,37.588048 43.2036,55.155252 31.94934,77.502986 c -1.422635,2.824945 -2.871365,5.898623 -3.219401,6.830402 -0.348036,0.931775 -0.728699,1.743559 -0.845919,1.803965 -0.11722,0.06041 -4.419818,-1.534651 -9.56133,-3.544578 z"
     id="path3812"
     inkscape:connector-curvature="0" />
  <path
     style="stroke-width:0.35422507;fill:#00bff2;fill-opacity:1"
     d="M 40.068771,91.233919 C 35.003352,89.258604 30.795032,87.595209 30.716947,87.537485 30.459168,87.346922 33.884035,79.870286 35.881426,76.263198 43.540795,62.431149 54.103191,50.610587 66.501789,41.995411 82.172232,31.106794 100.20737,24.859516 118.08684,24.126624 l 5.40193,-0.221429 v 10.32743 10.32743 l -2.56813,0.0029 C 107.52132,44.578125 90.487293,50.239259 78.502191,58.660428 66.865497,66.836791 56.94942,78.76707 51.420022,91.243649 c -0.830133,1.873121 -1.651548,3.445289 -1.825366,3.493711 -0.173819,0.04842 -4.460467,-1.52813 -9.525885,-3.503445 z"
     id="path3814"
     inkscape:connector-curvature="0" />
  <path
     style="fill:#00bff2;stroke-width:0.35422507;fill-opacity:1"
     d="m 73.597811,140.79669 c -2.079535,-6.27775 -2.661517,-9.9647 -2.666106,-16.89022 -0.0046,-6.89839 0.578791,-10.64696 2.597088,-16.68835 2.768974,-8.288401 6.528664,-14.313291 12.920614,-20.705242 9.348592,-9.348592 20.909483,-14.668988 33.231443,-15.293327 l 3.80792,-0.192943 v 10.82854 10.828539 l -2.03679,0.211638 c -11.33155,1.177434 -20.80863,7.615155 -25.603927,17.392605 -2.343455,4.77822 -2.953613,7.63492 -2.946584,13.79565 0.0055,4.78859 0.10077,5.61076 0.96496,8.32429 0.527393,1.656 0.992272,3.23302 1.033063,3.50447 0.04951,0.32952 -3.088172,1.88186 -9.440704,4.67069 -5.233178,2.29741 -9.721119,4.25627 -9.973202,4.353 -0.318478,0.12221 -0.894517,-1.14088 -1.887775,-4.13934 z"
     id="path3816"
     inkscape:connector-curvature="0" />
</svg>
