<?xml version="1.0" standalone="no"?><!DOCTYPE svg PUBLIC "-//W3C//DTD SVG 1.1//EN" "http://www.w3.org/Graphics/SVG/1.1/DTD/svg11.dtd"><svg xmlns="http://www.w3.org/2000/svg" viewBox="0 0 650 400" version="1.1"><clipPath id="box"><rect x="0" y="0" width="650" height="400" style="fill:none;stroke:none;" /></clipPath><g clip-path="url(#box)"><rect x="0.00" y="0.00" width="650.00" height="400.00" style="fill:#FFFFFF;stroke:none;" /><path d="M0.00 400.00 L650.00 400.00 M0.00 380.00 L650.00 380.00 M0.00 360.00 L650.00 360.00 M0.00 340.00 L650.00 340.00 M0.00 320.00 L650.00 320.00 M0.00 300.00 L650.00 300.00 M0.00 280.00 L650.00 280.00 M0.00 260.00 L650.00 260.00 M0.00 240.00 L650.00 240.00 M0.00 220.00 L650.00 220.00 M0.00 200.00 L650.00 200.00 M0.00 179.00 L650.00 179.00 M0.00 160.00 L650.00 160.00 M0.00 140.00 L650.00 140.00 M0.00 120.00 L650.00 120.00 M0.00 100.00 L650.00 100.00 M0.00 79.00 L650.00 79.00 M0.00 60.00 L650.00 60.00 M0.00 39.00 L650.00 39.00 M0.00 20.00 L650.00 20.00 M0.00 0.00 L650.00 0.00 M0.00 0.00 L0.00 400.00 M65.00 0.00 L65.00 400.00 M130.00 0.00 L130.00 400.00 M195.00 0.00 L195.00 400.00 M260.00 0.00 L260.00 400.00 M325.00 0.00 L325.00 400.00 M390.00 0.00 L390.00 400.00 M454.00 0.00 L454.00 400.00 M520.00 0.00 L520.00 400.00 M585.00 0.00 L585.00 400.00 M650.00 0.00 L650.00 400.00 " style="fill:none;stroke:#D0D0D0;stroke-width:1;" /><path d="M0.00 0.00 L0.00 400.00 " style="fill:none;stroke:#000000;stroke-width:1;" /><path d="M-6.50 400.00 L6.50 400.00 M-6.50 380.00 L6.50 380.00 M-6.50 360.00 L6.50 360.00 M-6.50 340.00 L6.50 340.00 M-6.50 320.00 L6.50 320.00 M-6.50 300.00 L6.50 300.00 M-6.50 280.00 L6.50 280.00 M-6.50 260.00 L6.50 260.00 M-6.50 240.00 L6.50 240.00 M-6.50 220.00 L6.50 220.00 M-6.50 200.00 L6.50 200.00 M-6.50 180.00 L6.50 180.00 M-6.50 160.00 L6.50 160.00 M-6.50 140.00 L6.50 140.00 M-6.50 120.00 L6.50 120.00 M-6.50 100.00 L6.50 100.00 M-6.50 80.00 L6.50 80.00 M-6.50 60.00 L6.50 60.00 M-6.50 40.00 L6.50 40.00 M-6.50 20.00 L6.50 20.00 M-6.50 0.00 L6.50 0.00 " style="fill:none;stroke:#000000;stroke-width:1;" /><path d="M0.00 400.00 L650.00 400.00 " style="fill:none;stroke:#000000;stroke-width:1;" /><path d="M0.00 393.50 L0.00 406.50 M65.00 393.50 L65.00 406.50 M130.00 393.50 L130.00 406.50 M195.00 393.50 L195.00 406.50 M260.00 393.50 L260.00 406.50 M325.00 393.50 L325.00 406.50 M390.00 393.50 L390.00 406.50 M455.00 393.50 L455.00 406.50 M520.00 393.50 L520.00 406.50 M585.00 393.50 L585.00 406.50 M650.00 393.50 L650.00 406.50 " style="fill:none;stroke:#000000;stroke-width:1;" /><text x="8.125" y="382.5" text-anchor="start" style="font:10px Droid Sans,Trebuchet MS,Arial,Helvetica,sans-serif;stroke:none;fill:#000000">1</text><text x="8.125" y="362.5" text-anchor="start" style="font:10px Droid Sans,Trebuchet MS,Arial,Helvetica,sans-serif;stroke:none;fill:#000000">2</text><text x="8.125" y="342.5" text-anchor="start" style="font:10px Droid Sans,Trebuchet MS,Arial,Helvetica,sans-serif;stroke:none;fill:#000000">3</text><text x="8.125" y="322.5" text-anchor="start" style="font:10px Droid Sans,Trebuchet MS,Arial,Helvetica,sans-serif;stroke:none;fill:#000000">4</text><text x="8.125" y="302.5" text-anchor="start" style="font:10px Droid Sans,Trebuchet MS,Arial,Helvetica,sans-serif;stroke:none;fill:#000000">5</text><text x="8.125" y="282.5" text-anchor="start" style="font:10px Droid Sans,Trebuchet MS,Arial,Helvetica,sans-serif;stroke:none;fill:#000000">6</text><text x="8.125" y="262.5" text-anchor="start" style="font:10px Droid Sans,Trebuchet MS,Arial,Helvetica,sans-serif;stroke:none;fill:#000000">7</text><text x="8.125" y="242.5" text-anchor="start" style="font:10px Droid Sans,Trebuchet MS,Arial,Helvetica,sans-serif;stroke:none;fill:#000000">8</text><text x="8.125" y="222.50000000000003" text-anchor="start" style="font:10px Droid Sans,Trebuchet MS,Arial,Helvetica,sans-serif;stroke:none;fill:#000000">9</text><text x="8.125" y="202.5" text-anchor="start" style="font:10px Droid Sans,Trebuchet MS,Arial,Helvetica,sans-serif;stroke:none;fill:#000000">10</text><text x="8.125" y="182.5" text-anchor="start" style="font:10px Droid Sans,Trebuchet MS,Arial,Helvetica,sans-serif;stroke:none;fill:#000000">11</text><text x="8.125" y="162.5" text-anchor="start" style="font:10px Droid Sans,Trebuchet MS,Arial,Helvetica,sans-serif;stroke:none;fill:#000000">12</text><text x="8.125" y="142.5" text-anchor="start" style="font:10px Droid Sans,Trebuchet MS,Arial,Helvetica,sans-serif;stroke:none;fill:#000000">13</text><text x="8.125" y="122.5" text-anchor="start" style="font:10px Droid Sans,Trebuchet MS,Arial,Helvetica,sans-serif;stroke:none;fill:#000000">14</text><text x="8.125" y="102.5" text-anchor="start" style="font:10px Droid Sans,Trebuchet MS,Arial,Helvetica,sans-serif;stroke:none;fill:#000000">15</text><text x="8.125" y="82.5" text-anchor="start" style="font:10px Droid Sans,Trebuchet MS,Arial,Helvetica,sans-serif;stroke:none;fill:#000000">16</text><text x="8.125" y="62.5" text-anchor="start" style="font:10px Droid Sans,Trebuchet MS,Arial,Helvetica,sans-serif;stroke:none;fill:#000000">17</text><text x="8.125" y="42.5" text-anchor="start" style="font:10px Droid Sans,Trebuchet MS,Arial,Helvetica,sans-serif;stroke:none;fill:#000000">18</text><text x="8.125" y="22.5" text-anchor="start" style="font:10px Droid Sans,Trebuchet MS,Arial,Helvetica,sans-serif;stroke:none;fill:#000000">19</text><text x="65" y="389.625" text-anchor="middle" style="font:10px Droid Sans,Trebuchet MS,Arial,Helvetica,sans-serif;stroke:none;fill:#000000">10000</text><text x="130" y="389.625" text-anchor="middle" style="font:10px Droid Sans,Trebuchet MS,Arial,Helvetica,sans-serif;stroke:none;fill:#000000">20000</text><text x="195" y="389.625" text-anchor="middle" style="font:10px Droid Sans,Trebuchet MS,Arial,Helvetica,sans-serif;stroke:none;fill:#000000">30000</text><text x="260" y="389.625" text-anchor="middle" style="font:10px Droid Sans,Trebuchet MS,Arial,Helvetica,sans-serif;stroke:none;fill:#000000">40000</text><text x="325" y="389.625" text-anchor="middle" style="font:10px Droid Sans,Trebuchet MS,Arial,Helvetica,sans-serif;stroke:none;fill:#000000">50000</text><text x="390" y="389.625" text-anchor="middle" style="font:10px Droid Sans,Trebuchet MS,Arial,Helvetica,sans-serif;stroke:none;fill:#000000">60000</text><text x="454.99999999999994" y="389.625" text-anchor="middle" style="font:10px Droid Sans,Trebuchet MS,Arial,Helvetica,sans-serif;stroke:none;fill:#000000">70000</text><text x="520" y="389.625" text-anchor="middle" style="font:10px Droid Sans,Trebuchet MS,Arial,Helvetica,sans-serif;stroke:none;fill:#000000">80000</text><text x="585" y="389.625" text-anchor="middle" style="font:10px Droid Sans,Trebuchet MS,Arial,Helvetica,sans-serif;stroke:none;fill:#000000">90000</text><path d="M-0.00 400.00 L-0.00 400.00 L2.00 399.08 L4.00 398.15 L6.00 397.23 L8.00 396.31 L10.00 395.38 L12.00 394.46 L14.00 393.54 L16.00 392.62 L18.00 391.69 L20.00 390.77 L22.00 389.85 L24.00 388.92 L26.00 388.00 L28.00 387.08 L30.00 386.15 L32.00 385.23 L34.00 384.31 L36.00 383.38 L38.00 382.46 L40.00 381.54 L42.00 380.62 L44.00 379.69 L46.00 378.77 L48.00 377.85 L50.00 376.92 L52.00 376.00 L54.00 375.08 L56.00 374.15 L58.00 373.23 L60.00 372.31 L62.00 371.38 L64.00 370.46 L66.00 369.54 L68.00 368.62 L70.00 367.69 L72.00 366.77 L74.00 365.85 L76.00 364.92 L78.00 364.00 L80.00 363.08 L82.00 362.15 L84.00 361.23 L86.00 360.31 L88.00 359.38 L90.00 358.46 L92.00 357.54 L94.00 356.62 L96.00 355.69 L98.00 354.77 L100.00 353.85 L102.00 352.92 L104.00 352.00 L106.00 351.08 L108.00 350.15 L110.00 349.23 L112.00 348.31 L114.00 347.38 L116.00 346.46 L118.00 345.54 L120.00 344.62 L122.00 343.69 L124.00 342.77 L126.00 341.85 L128.00 340.92 L130.00 340.00 L132.00 339.08 L134.00 338.15 L136.00 337.23 L138.00 336.31 L140.00 335.38 L142.00 334.46 L144.00 333.54 L146.00 332.62 L148.00 331.69 L150.00 330.77 L152.00 329.85 L154.00 328.92 L156.00 328.00 L158.00 327.08 L160.00 326.15 L162.00 325.23 L164.00 324.31 L166.00 323.38 L168.00 322.46 L170.00 321.54 L172.00 320.62 L174.00 319.69 L176.00 318.77 L178.00 317.85 L180.00 316.92 L182.00 316.00 L184.00 315.08 L186.00 314.15 L188.00 313.23 L190.00 312.31 L192.00 311.38 L194.00 310.46 L196.00 309.54 L198.00 308.62 L200.00 307.69 L202.00 306.77 L204.00 305.85 L206.00 304.92 L208.00 304.00 L210.00 303.08 L212.00 302.15 L214.00 301.23 L216.00 300.31 L218.00 299.38 L220.00 298.46 L222.00 297.54 L224.00 296.62 L226.00 295.69 L228.00 294.77 L230.00 293.85 L232.00 292.92 L234.00 292.00 L236.00 291.08 L238.00 290.15 L240.00 289.23 L242.00 288.31 L244.00 287.38 L246.00 286.46 L248.00 285.54 L250.00 284.62 L252.00 283.69 L254.00 282.77 L256.00 281.85 L258.00 280.92 L260.00 280.00 L262.00 279.08 L264.00 278.15 L266.00 277.23 L268.00 276.31 L270.00 275.38 L272.00 274.46 L274.00 273.54 L276.00 272.62 L278.00 271.69 L280.00 270.77 L282.00 269.85 L284.00 268.92 L286.00 268.00 L288.00 267.08 L290.00 266.15 L292.00 265.23 L294.00 264.31 L296.00 263.38 L298.00 262.46 L300.00 261.54 L302.00 260.62 L304.00 259.69 L306.00 258.77 L308.00 257.85 L310.00 256.92 L312.00 256.00 L314.00 255.08 L316.00 254.15 L318.00 253.23 L320.00 252.31 L322.00 251.38 L324.00 250.46 L326.00 249.54 L328.00 248.62 L330.00 247.69 L332.00 246.77 L334.00 245.85 L336.00 244.92 L338.00 244.00 L340.00 243.08 L342.00 242.15 L344.00 241.23 L346.00 240.31 L348.00 239.38 L350.00 238.46 L352.00 237.54 L354.00 236.62 L356.00 235.69 L358.00 234.77 L360.00 233.85 L362.00 232.92 L364.00 232.00 L366.00 231.08 L368.00 230.15 L370.00 229.23 L372.00 228.31 L374.00 227.38 L376.00 226.46 L378.00 225.54 L380.00 224.62 L382.00 223.69 L384.00 222.77 L386.00 221.85 L388.00 220.92 L390.00 220.00 L392.00 219.08 L394.00 218.15 L396.00 217.23 L398.00 216.31 L400.00 215.38 L402.00 214.46 L404.00 213.54 L406.00 212.62 L408.00 211.69 L410.00 210.77 L412.00 209.85 L414.00 208.92 L416.00 208.00 L418.00 207.08 L420.00 206.15 L422.00 205.23 L424.00 204.31 L426.00 203.38 L428.00 202.46 L430.00 201.54 L432.00 200.62 L434.00 199.69 L436.00 198.77 L438.00 197.85 L440.00 196.92 L442.00 196.00 L444.00 195.08 L446.00 194.15 L448.00 193.23 L450.00 192.31 L452.00 191.38 L454.00 190.46 L456.00 189.54 L458.00 188.62 L460.00 187.69 L462.00 186.77 L464.00 185.85 L466.00 184.92 L468.00 184.00 L470.00 183.08 L472.00 182.15 L474.00 181.23 L476.00 180.31 L478.00 179.38 L480.00 178.46 L482.00 177.54 L484.00 176.62 L486.00 175.69 L488.00 174.77 L490.00 173.85 L492.00 172.92 L494.00 172.00 L496.00 171.08 L498.00 170.15 L500.00 169.23 L502.00 168.31 L504.00 167.38 L506.00 166.46 L508.00 165.54 L510.00 164.62 L512.00 163.69 L514.00 162.77 L516.00 161.85 L518.00 160.92 L520.00 160.00 L522.00 159.08 L524.00 158.15 L526.00 157.23 L528.00 156.31 L530.00 155.38 L532.00 154.46 L534.00 153.54 L536.00 152.62 L538.00 151.69 L540.00 150.77 L542.00 149.85 L544.00 148.92 L546.00 148.00 L548.00 147.08 L550.00 146.15 L552.00 145.23 L554.00 144.31 L556.00 143.38 L558.00 142.46 L560.00 141.54 L562.00 140.62 L564.00 139.69 L566.00 138.77 L568.00 137.85 L570.00 136.92 L572.00 136.00 L574.00 135.08 L576.00 134.15 L578.00 133.23 L580.00 132.31 L582.00 131.38 L584.00 130.46 L586.00 129.54 L588.00 128.62 L590.00 127.69 L592.00 126.77 L594.00 125.85 L596.00 124.92 L598.00 124.00 L600.00 123.08 L602.00 122.15 L604.00 121.23 L606.00 120.31 L608.00 119.38 L610.00 118.46 L612.00 117.54 L614.00 116.62 L616.00 115.69 L618.00 114.77 L620.00 113.85 L622.00 112.92 L624.00 112.00 L626.00 111.08 L628.00 110.15 L630.00 109.23 L632.00 108.31 L634.00 107.38 L636.00 106.46 L638.00 105.54 L640.00 104.62 L642.00 103.69 L644.00 102.77 L646.00 101.85 L648.00 100.92 " style="fill:none;stroke:#000000;stroke-width:1;" /></g></svg>